<?xml version="1.0" encoding="UTF-8"?>
<svg id="_迹_1" data-name="卵迹_1" xmlns="http://www.w3.org/2000/svg" viewBox="0 0 68 68">
  <defs>
    <style>
      .cls-1 {
        fill: #f299b2;
      }

      .cls-2 {
        fill: #fff;
      }

      .cls-2, .cls-3 {
        fill-rule: evenodd;
      }

      .cls-3 {
        fill: #ffe9ed;
      }
    </style>
  </defs>
  <path class="cls-3" d="m6.86,3.35h49.05c3.2,0,5.85,2.57,5.85,5.77v6H1.01v-6c0-3.2,2.57-5.77,5.85-5.77h0Z"/>
  <path class="cls-2" d="m54.98,42.89c6.63,0,12.01,5.38,12.01,12.09s-5.38,12.01-12.01,12.01-12.09-5.38-12.09-12.01,5.38-12.09,12.09-12.09h0Z"/>
  <path class="cls-1" d="m54.98,68c-7.22,0-13.1-5.84-13.1-13.02s5.88-13.1,13.1-13.1c2.7,0,5.33.85,7.6,2.44.46.32.57.96.25,1.41-.32.46-.96.57-1.41.25-1.93-1.36-4.16-2.08-6.44-2.08-6.11,0-11.07,4.97-11.07,11.07s4.97,11,11.07,11,11-4.93,11-11c0-2.29-.71-4.58-2-6.44-.32-.46-.2-1.09.26-1.41.46-.32,1.09-.21,1.41.26,1.52,2.2,2.36,4.9,2.36,7.6,0,7.18-5.84,13.02-13.02,13.02Z"/>
  <path class="cls-1" d="m61.76,16.14H7.1c-.56,0-1.01-.45-1.01-1.01s.45-1.01,1.01-1.01h54.67c.56,0,1.01.45,1.01,1.01s-.45,1.01-1.01,1.01Z"/>
  <path class="cls-1" d="m10.68,9.2c-.56,0-1.01-.45-1.01-1.01V1.01c0-.56.45-1.01,1.01-1.01s1.01.45,1.01,1.01v7.17c0,.56-.45,1.01-1.01,1.01Z"/>
  <path class="cls-1" d="m21.06,9.2c-.56,0-1.01-.45-1.01-1.01V1.01c0-.56.45-1.01,1.01-1.01s1.01.45,1.01,1.01v7.17c0,.56-.45,1.01-1.01,1.01Z"/>
  <path class="cls-1" d="m31.35,9.2c-.56,0-1.01-.45-1.01-1.01V1.01c0-.56.45-1.01,1.01-1.01s1.01.45,1.01,1.01v7.17c0,.56-.45,1.01-1.01,1.01Z"/>
  <path class="cls-1" d="m41.72,9.2c-.56,0-1.01-.45-1.01-1.01V1.01c0-.56.45-1.01,1.01-1.01s1.01.45,1.01,1.01v7.17c0,.56-.45,1.01-1.01,1.01Z"/>
  <path class="cls-1" d="m52.01,9.2c-.56,0-1.01-.45-1.01-1.01V1.01c0-.56.45-1.01,1.01-1.01s1.01.45,1.01,1.01v7.17c0,.56-.45,1.01-1.01,1.01Z"/>
  <path class="cls-1" d="m38.76,55.06H6.86c-3.85,0-6.86-2.98-6.86-6.78V9.12C0,5.32,3.01,2.34,6.86,2.34h3.82c.56,0,1.01.45,1.01,1.01s-.45,1.01-1.01,1.01h-3.82c-2.71,0-4.84,2.09-4.84,4.76v39.15c0,2.67,2.13,4.76,4.84,4.76h31.9c.56,0,1.01.45,1.01,1.01s-.45,1.01-1.01,1.01Zm23.01-13.8c-.56,0-1.01-.45-1.01-1.01V9.12c0-2.41-1.9-4.5-4.32-4.76-.56-.06-.96-.56-.9-1.12.06-.55.53-.99,1.12-.9,3.44.37,6.13,3.35,6.13,6.78v31.12c0,.56-.45,1.01-1.01,1.01ZM52.01,4.36h-5.85c-.56,0-1.01-.45-1.01-1.01s.45-1.01,1.01-1.01h5.85c.56,0,1.01.45,1.01,1.01s-.45,1.01-1.01,1.01Zm-10.29,0h-5.85c-.56,0-1.01-.45-1.01-1.01s.45-1.01,1.01-1.01h5.85c.56,0,1.01.45,1.01,1.01s-.45,1.01-1.01,1.01Zm-10.37,0h-5.85c-.56,0-1.01-.45-1.01-1.01s.45-1.01,1.01-1.01h5.85c.56,0,1.01.45,1.01,1.01s-.45,1.01-1.01,1.01Zm-10.29,0h-5.85c-.56,0-1.01-.45-1.01-1.01s.45-1.01,1.01-1.01h5.85c.56,0,1.01.45,1.01,1.01s-.45,1.01-1.01,1.01Z"/>
  <path class="cls-1" d="m31.89,25.11c-.56,0-1.09-.45-1.09-1.01s.38-1.01.93-1.01h.16c.56,0,1.01.45,1.01,1.01s-.45,1.01-1.01,1.01Z"/>
  <path class="cls-1" d="m39.69,25.11c-.56,0-1.09-.45-1.09-1.01s.38-1.01.93-1.01h.16c.56,0,1.01.45,1.01,1.01s-.45,1.01-1.01,1.01Z"/>
  <path class="cls-1" d="m47.49,25.11c-.56,0-1.09-.45-1.09-1.01s.38-1.01.93-1.01h.16c.56,0,1.01.45,1.01,1.01s-.45,1.01-1.01,1.01Z"/>
  <path class="cls-1" d="m55.29,25.11c-.56,0-1.09-.45-1.09-1.01s.38-1.01.93-1.01h.16c.56,0,1.01.45,1.01,1.01s-.45,1.01-1.01,1.01Z"/>
  <path class="cls-1" d="m8.5,32.13c-.56,0-1.13-.45-1.13-1.01s.34-1.01.9-1.01h.23c.56,0,1.01.45,1.01,1.01s-.45,1.01-1.01,1.01Z"/>
  <path class="cls-1" d="m16.3,32.13c-.56,0-1.13-.45-1.13-1.01s.34-1.01.9-1.01h.23c.56,0,1.01.45,1.01,1.01s-.45,1.01-1.01,1.01Z"/>
  <path class="cls-1" d="m24.1,32.13c-.56,0-1.09-.45-1.09-1.01s.38-1.01.93-1.01h.16c.56,0,1.01.45,1.01,1.01s-.45,1.01-1.01,1.01Z"/>
  <path class="cls-1" d="m31.89,32.13c-.56,0-1.09-.45-1.09-1.01s.38-1.01.93-1.01h.16c.56,0,1.01.45,1.01,1.01s-.45,1.01-1.01,1.01Z"/>
  <path class="cls-1" d="m39.69,32.13c-.56,0-1.09-.45-1.09-1.01s.38-1.01.93-1.01h.16c.56,0,1.01.45,1.01,1.01s-.45,1.01-1.01,1.01Z"/>
  <path class="cls-1" d="m47.49,32.13c-.56,0-1.09-.45-1.09-1.01s.38-1.01.93-1.01h.16c.56,0,1.01.45,1.01,1.01s-.45,1.01-1.01,1.01Z"/>
  <path class="cls-1" d="m55.29,32.13c-.56,0-1.09-.45-1.09-1.01s.38-1.01.93-1.01h.16c.56,0,1.01.45,1.01,1.01s-.45,1.01-1.01,1.01Z"/>
  <path class="cls-1" d="m8.5,39.14c-.56,0-1.13-.45-1.13-1.01s.34-1.01.9-1.01h.23c.56,0,1.01.45,1.01,1.01s-.45,1.01-1.01,1.01Z"/>
  <path class="cls-1" d="m16.3,39.14c-.56,0-1.13-.45-1.13-1.01s.34-1.01.9-1.01h.23c.56,0,1.01.45,1.01,1.01s-.45,1.01-1.01,1.01Z"/>
  <path class="cls-1" d="m24.1,39.14c-.56,0-1.09-.45-1.09-1.01s.38-1.01.93-1.01h.16c.56,0,1.01.45,1.01,1.01s-.45,1.01-1.01,1.01Z"/>
  <path class="cls-1" d="m31.89,39.14c-.56,0-1.09-.45-1.09-1.01s.38-1.01.93-1.01h.16c.56,0,1.01.45,1.01,1.01s-.45,1.01-1.01,1.01Z"/>
  <path class="cls-1" d="m39.69,39.14c-.56,0-1.09-.45-1.09-1.01s.38-1.01.93-1.01h.16c.56,0,1.01.45,1.01,1.01s-.45,1.01-1.01,1.01Z"/>
  <path class="cls-1" d="m47.49,39.14c-.56,0-1.09-.45-1.09-1.01s.38-1.01.93-1.01h.16c.56,0,1.01.45,1.01,1.01s-.45,1.01-1.01,1.01Z"/>
  <path class="cls-1" d="m55.29,39.14c-.56,0-1.09-.45-1.09-1.01s.38-1.01.93-1.01h.16c.56,0,1.01.45,1.01,1.01s-.45,1.01-1.01,1.01Z"/>
  <path class="cls-1" d="m8.5,46.16c-.56,0-1.13-.45-1.13-1.01s.34-1.01.9-1.01h.23c.56,0,1.01.45,1.01,1.01s-.45,1.01-1.01,1.01Z"/>
  <path class="cls-1" d="m16.3,46.16c-.56,0-1.13-.45-1.13-1.01s.34-1.01.9-1.01h.23c.56,0,1.01.45,1.01,1.01s-.45,1.01-1.01,1.01Z"/>
  <path class="cls-1" d="m24.1,46.16c-.56,0-1.09-.45-1.09-1.01s.38-1.01.93-1.01h.16c.56,0,1.01.45,1.01,1.01s-.45,1.01-1.01,1.01Z"/>
  <path class="cls-1" d="m31.89,46.16c-.56,0-1.09-.45-1.09-1.01s.38-1.01.93-1.01h.16c.56,0,1.01.45,1.01,1.01s-.45,1.01-1.01,1.01Z"/>
  <path class="cls-1" d="m39.69,46.16c-.56,0-1.09-.45-1.09-1.01s.38-1.01.93-1.01h.16c.56,0,1.01.45,1.01,1.01s-.45,1.01-1.01,1.01Z"/>
  <path class="cls-1" d="m58.96,58.64c-.19,0-.39-.05-.56-.17l-3.98-2.65c-.28-.19-.45-.51-.45-.84v-6.55c0-.56.45-1.01,1.01-1.01s1.01.45,1.01,1.01v6.01l3.53,2.35c.47.31.59.94.28,1.41-.2.29-.52.45-.84.45Z"/>
</svg>