<?xml version="1.0" encoding="UTF-8"?>
<svg id="Layer_1" data-name="Layer 1" xmlns="http://www.w3.org/2000/svg" viewBox="0 0 120 120">
  <defs>
    <style>
      .cls-1 {
        fill: #f299b2;
      }

      .cls-2 {
        fill: #fff1f7;
      }
    </style>
  </defs>
  <circle class="cls-2" cx="60" cy="60" r="60"/>
  <g>
    <path class="cls-1" d="m62.7,85c-.32,0-.63-.14-.84-.4-.37-.46-.3-1.14.16-1.51,1.2-.97,1.76-1.72,1.76-2.36,0-.02,0-.03,0-.05-.05-.58-.66-1.3-3.49-2.93-.08-.05-.17-.07-.26-.07s-.18.02-.26.07c-2.82,1.64-3.43,2.36-3.47,2.93,0,.01,0,.03,0,.04,0,.64.56,1.39,1.76,2.36.22.18.36.44.39.72.03.28-.05.56-.23.79-.2.25-.51.4-.83.4-.24,0-.48-.08-.67-.24-1.19-.96-2.55-2.29-2.55-4.02,0-1.31.92-2.51,2.97-3.87.15-.1.24-.27.23-.45,0-.18-.11-.35-.26-.44-2.72-1.56-4.54-2.97-4.54-4.81,0-1.37,1.18-2.58,3.81-3.93.18-.09.29-.28.28-.48,0-.2-.12-.38-.31-.46-3.23-1.47-5.39-2.83-5.39-4.7,0-.41.12-.83.36-1.23.61-1.04,1.76-1.66,2.52-2.08.6-.33,1.25-.64,2.11-1.01.19-.08.32-.27.32-.48,0-.21-.12-.4-.31-.48-.83-.37-1.45-.67-2.03-.98-.81-.44-1.92-1.04-2.53-2.07-.45-.76-.56-1.72-.28-2.69.33-1.16,1.12-2.19,2.08-2.69.16-.08.33-.12.5-.12.4,0,.76.22.95.57.13.25.16.54.08.81-.08.27-.27.5-.53.63-.43.23-.85.79-1.01,1.38-.06.23-.14.67.05,1.01.32.53,1.09.95,1.71,1.29,1.12.61,2.29,1.1,3.28,1.49.06.02.13.04.19.04.1,0,.21-.03.29-.09.14-.1.23-.26.23-.43v-7.45c0-.24-.16-.45-.39-.51-2.59-.67-4.39-2.99-4.39-5.65,0-3.23,2.63-5.86,5.86-5.86s5.86,2.63,5.86,5.86c0,2.65-1.81,4.98-4.39,5.65-.23.06-.39.27-.39.51v7.48c0,.17.09.34.23.43.09.06.19.09.29.09.07,0,.13-.01.19-.04,1.01-.41,2.2-.9,3.33-1.51.63-.34,1.4-.76,1.72-1.29.2-.33.12-.77.05-1.01-.17-.59-.58-1.15-1.01-1.38-.25-.13-.44-.36-.52-.63-.08-.27-.06-.56.08-.82.19-.35.55-.57.95-.57.17,0,.34.04.5.12.96.5,1.75,1.54,2.08,2.7.27.97.17,1.93-.28,2.69-.62,1.03-1.72,1.63-2.53,2.07-.58.31-1.2.61-2.03.98-.19.08-.31.27-.31.48,0,.21.13.4.32.48.86.37,1.52.68,2.11,1.01.76.41,1.91,1.04,2.52,2.08.23.4.35.82.35,1.23,0,1.87-2.17,3.23-5.42,4.7-.18.08-.3.26-.31.46s.1.39.28.48c2.62,1.35,3.79,2.56,3.79,3.93,0,1.84-1.8,3.25-4.5,4.81-.16.09-.26.26-.26.44,0,.18.08.35.24.45,2.07,1.36,3,2.56,3,3.87,0,1.73-1.36,3.06-2.55,4.02-.19.16-.43.24-.67.24Zm-1.1-16.34c-.1,0-.2.03-.28.08-.15.1-.24.26-.24.44v4.48c0,.19.1.36.26.45.08.05.17.07.26.07s.18-.02.26-.07c2.81-1.63,3.41-2.35,3.45-2.92,0-.08,0-.17-.04-.24-.17-.4-.71-.96-3.45-2.24-.07-.03-.15-.05-.22-.05Zm-3.19.01c-.08,0-.15.02-.22.05-2.75,1.3-3.29,1.91-3.47,2.34-.03.08-.04.17-.03.26.06.53.66,1.18,3.46,2.79.08.05.17.07.26.07s.18-.02.26-.07c.16-.09.26-.27.26-.45v-4.46c0-.18-.09-.35-.24-.44-.09-.05-.18-.08-.28-.08Zm3.19-10.08c-.1,0-.21.03-.29.09-.14.1-.23.26-.23.43v5.19c0,.18.09.34.24.44.09.06.19.09.29.09.07,0,.14-.01.21-.04,3.05-1.33,4.55-2.19,5.02-2.87.13-.19.12-.44-.02-.62-.37-.46-1.07-.85-1.59-1.13-1.11-.6-2.35-1.11-3.42-1.54-.06-.02-.13-.04-.19-.04Zm-3.19.03c-.07,0-.13.01-.19.04-1.05.42-2.26.92-3.36,1.51-.65.35-1.26.71-1.59,1.13-.14.18-.15.43-.02.62.46.67,1.94,1.53,4.95,2.86.07.03.14.04.21.04.1,0,.2-.03.29-.08.15-.1.24-.26.24-.44v-5.15c0-.17-.09-.34-.23-.43-.09-.06-.19-.09-.29-.09Zm1.6-21.48c-2.05,0-3.71,1.67-3.71,3.71s1.67,3.71,3.71,3.71,3.71-1.67,3.71-3.71-1.67-3.71-3.71-3.71Z"/>
    <path class="cls-1" d="m72.76,62.67c-.59,0-1.07-.48-1.07-1.07s.48-1.07,1.07-1.07h2.13c.21,0,.4-.13.48-.32l1.33-3.19c.07-.16.05-.35-.05-.49-.1-.15-.26-.23-.44-.23h-1.86c-.59,0-1.07-.48-1.07-1.07s.48-1.07,1.07-1.07h3.19c.21,0,.4-.13.48-.32l1.33-3.19c.07-.16.05-.35-.05-.49-.1-.15-.26-.23-.44-.23h-4.52c-.59,0-1.07-.48-1.07-1.07s.48-1.07,1.07-1.07h5.85c.21,0,.4-.13.48-.32l1.33-3.19c.07-.16.05-.35-.05-.49-.1-.15-.26-.23-.44-.23h-8.77c-.59,0-1.07-.48-1.07-1.07s.48-1.07,1.07-1.07h11.17c.36,0,.69.18.89.48.2.3.24.68.1,1.01l-7.98,19.14c-.17.4-.56.66-.99.66h-3.19Z"/>
    <path class="cls-1" d="m44.05,62.67c-.43,0-.82-.26-.99-.66l-7.98-19.14c-.14-.33-.1-.71.1-1.01.2-.3.53-.48.89-.48h11.17c.59,0,1.07.48,1.07,1.07s-.48,1.07-1.07,1.07h-8.77c-.18,0-.34.09-.44.23-.1.15-.11.33-.05.49l1.33,3.19c.08.2.27.32.48.32h5.85c.59,0,1.07.48,1.07,1.07s-.48,1.07-1.07,1.07h-4.52c-.18,0-.34.09-.44.23-.1.15-.11.33-.05.49l1.33,3.19c.08.2.27.32.48.32h3.19c.59,0,1.07.48,1.07,1.07s-.48,1.07-1.07,1.07h-1.86c-.18,0-.34.09-.44.23-.1.15-.11.33-.05.49l1.33,3.19c.08.19.27.32.48.32h2.13c.59,0,1.07.48,1.07,1.07s-.48,1.07-1.07,1.07h-3.19Z"/>
  </g>
</svg>