<?xml version="1.0" encoding="UTF-8"?>
<svg id="Layer_1" data-name="Layer 1" xmlns="http://www.w3.org/2000/svg" viewBox="0 0 120 120">
  <defs>
    <style>
      .cls-1 {
        fill: #f299b2;
      }

      .cls-2 {
        fill: #fff1f7;
      }
    </style>
  </defs>
  <circle class="cls-2" cx="60" cy="60" r="60"/>
  <g>
    <path class="cls-1" d="m61.6,56.29c-.59,0-1.07-.48-1.07-1.07s.48-1.07,1.07-1.07h7.98c.29,0,.52-.23.52-.52v-3.19c0-.29-.23-.52-.52-.52h-7.98c-.59,0-1.07-.48-1.07-1.07s.48-1.07,1.07-1.07h9.57c.59,0,1.07.48,1.07,1.07v6.38c0,.59-.48,1.07-1.07,1.07h-9.57Z"/>
    <path class="cls-1" d="m50.43,43.52c-.59,0-1.07-.48-1.07-1.07s.48-1.07,1.07-1.07h15.95c.59,0,1.07.48,1.07,1.07s-.48,1.07-1.07,1.07h-15.95Z"/>
    <path class="cls-1" d="m36.07,75.43c-.59,0-1.07-.48-1.07-1.07v-25.52c0-.59.48-1.07,1.07-1.07h19.14c.59,0,1.07.48,1.07,1.07v25.52c0,.59-.48,1.07-1.07,1.07h-19.14Zm14.36-12.76c-.29,0-.52.23-.52.52v9.57c0,.29.23.52.52.52h3.19c.29,0,.52-.23.52-.52v-9.57c0-.29-.23-.52-.52-.52h-3.19Zm-6.38,6.38c-.29,0-.52.23-.52.52v3.19c0,.29.23.52.52.52h3.19c.29,0,.52-.23.52-.52v-3.19c0-.29-.23-.52-.52-.52h-3.19Zm-6.38,0c-.29,0-.52.23-.52.52v3.19c0,.29.23.52.52.52h3.19c.29,0,.52-.23.52-.52v-3.19c0-.29-.23-.52-.52-.52h-3.19Zm6.38-6.38c-.29,0-.52.23-.52.52v3.19c0,.29.23.52.52.52h3.19c.29,0,.52-.23.52-.52v-3.19c0-.29-.23-.52-.52-.52h-3.19Zm-6.38,0c-.29,0-.52.23-.52.52v3.19c0,.29.23.52.52.52h3.19c.29,0,.52-.23.52-.52v-3.19c0-.29-.23-.52-.52-.52h-3.19Zm12.76-6.38c-.29,0-.52.23-.52.52v3.19c0,.29.23.52.52.52h3.19c.29,0,.52-.23.52-.52v-3.19c0-.29-.23-.52-.52-.52h-3.19Zm-6.38,0c-.29,0-.52.23-.52.52v3.19c0,.29.23.52.52.52h3.19c.29,0,.52-.23.52-.52v-3.19c0-.29-.23-.52-.52-.52h-3.19Zm-6.38,0c-.29,0-.52.23-.52.52v3.19c0,.29.23.52.52.52h3.19c.29,0,.52-.23.52-.52v-3.19c0-.29-.23-.52-.52-.52h-3.19Zm0-6.38c-.29,0-.52.23-.52.52v3.19c0,.29.23.52.52.52h15.95c.29,0,.52-.23.52-.52v-3.19c0-.29-.23-.52-.52-.52h-15.95Z"/>
    <path class="cls-1" d="m39.26,85c-.59,0-1.07-.48-1.07-1.07v-4.79c0-.59.48-1.07,1.07-1.07s1.07.48,1.07,1.07v3.19c0,.29.23.52.52.52h20.74c.59,0,1.07.48,1.07,1.07s-.48,1.07-1.07,1.07h-22.33Z"/>
    <path class="cls-1" d="m77.55,57.88c-.59,0-1.07-.48-1.07-1.07v-19.14c0-.29-.23-.52-.52-.52h-35.09c-.29,0-.52.23-.52.52v6.38c0,.59-.48,1.07-1.07,1.07s-1.07-.48-1.07-1.07v-7.98c0-.59.48-1.07,1.07-1.07h38.29c.59,0,1.07.48,1.07,1.07v20.74c0,.59-.48,1.07-1.07,1.07Z"/>
    <path class="cls-1" d="m72.76,85c-6.75,0-12.24-5.49-12.24-12.24s5.49-12.24,12.24-12.24,12.24,5.49,12.24,12.24-5.49,12.24-12.24,12.24Zm0-22.33c-5.57,0-10.09,4.53-10.09,10.09s4.53,10.09,10.09,10.09,10.09-4.53,10.09-10.09-4.53-10.09-10.09-10.09Z"/>
    <path class="cls-1" d="m72.76,78.62c-.59,0-1.07-.48-1.07-1.07v-3.19c0-.29-.23-.52-.52-.52h-3.19c-.59,0-1.07-.48-1.07-1.07s.48-1.07,1.07-1.07h3.19c.29,0,.52-.23.52-.52v-3.19c0-.59.48-1.07,1.07-1.07s1.07.48,1.07,1.07v3.19c0,.29.23.52.52.52h3.19c.59,0,1.07.48,1.07,1.07s-.48,1.07-1.07,1.07h-3.19c-.29,0-.52.23-.52.52v3.19c0,.59-.48,1.07-1.07,1.07Z"/>
  </g>
</svg>