<?xml version="1.0" encoding="UTF-8"?>
<svg id="Layer_1" data-name="Layer 1" xmlns="http://www.w3.org/2000/svg" viewBox="0 0 120 120">
  <defs>
    <style>
      .cls-1 {
        fill: #f299b2;
      }

      .cls-2 {
        fill: #fff1f7;
      }
    </style>
  </defs>
  <circle class="cls-2" cx="60" cy="60" r="60"/>
  <g>
    <path class="cls-1" d="m60,85c-.25,0-.49-.04-.72-.11-21.34-6.45-21.46-33.28-20.98-41.35.08-1.36,1.22-2.43,2.6-2.43.03,0,.06,0,.08,0,.43.02.89.03,1.33.03,8.14,0,13.99-3.92,16.13-5.61.45-.35.99-.54,1.56-.54s1.1.19,1.55.54c2.14,1.69,7.99,5.61,16.09,5.61.46,0,.93-.01,1.39-.04.03,0,.06,0,.09,0,1.34,0,2.5,1.09,2.58,2.43.47,8.07.35,34.9-20.99,41.35-.23.07-.47.11-.72.11Zm-19.17-41.74c-.13,0-.26.05-.35.14-.1.09-.16.23-.17.37-.42,9.84.66,33.36,19.59,39.08.05.02.1.02.15.02s.1,0,.15-.02c19.7-5.99,19.81-31.43,19.37-39.09-.02-.28-.25-.49-.52-.49,0,0-.02,0-.03,0-.44.02-.88.03-1.32.03-8.74,0-15.07-4.19-17.39-6-.09-.07-.21-.11-.32-.11s-.23.04-.32.11c-2.32,1.8-8.65,6-17.38,6-.48,0-.96-.01-1.44-.04,0,0-.02,0-.03,0Z"/>
    <path class="cls-1" d="m56.81,71.72c-.59,0-1.07-.48-1.07-1.07v-6.38c0-.29-.23-.52-.52-.52h-6.38c-.59,0-1.07-.48-1.07-1.07v-6.38c0-.59.48-1.07,1.07-1.07h6.38c.29,0,.52-.23.52-.52v-6.38c0-.59.48-1.07,1.07-1.07h6.38c.59,0,1.07.48,1.07,1.07v6.38c0,.29.23.52.52.52h6.38c.59,0,1.07.48,1.07,1.07v6.38c0,.59-.48,1.07-1.07,1.07h-6.38c-.29,0-.52.23-.52.52v6.38c0,.59-.48,1.07-1.07,1.07h-6.38Zm-6.38-14.36c-.29,0-.52.23-.52.52v3.19c0,.29.23.52.52.52h6.38c.59,0,1.07.48,1.07,1.07v6.38c0,.29.23.52.52.52h3.19c.29,0,.52-.23.52-.52v-6.38c0-.59.48-1.07,1.07-1.07h6.38c.29,0,.52-.23.52-.52v-3.19c0-.29-.23-.52-.52-.52h-6.38c-.59,0-1.07-.48-1.07-1.07v-6.38c0-.29-.23-.52-.52-.52h-3.19c-.29,0-.52.23-.52.52v6.38c0,.59-.48,1.07-1.07,1.07h-6.38Z"/>
  </g>
</svg>