<?xml version="1.0" encoding="UTF-8"?>
<svg id="_迹_1" data-name="卵迹_1" xmlns="http://www.w3.org/2000/svg" viewBox="0 0 68 67.99">
  <defs>
    <style>
      .cls-1 {
        fill: #f299b2;
      }

      .cls-2 {
        fill: #fff;
      }

      .cls-2, .cls-3 {
        fill-rule: evenodd;
      }

      .cls-3 {
        fill: #ffe9ed;
      }
    </style>
  </defs>
  <path class="cls-3" d="m29.68,58.38c15.83,0,28.78-12.87,28.78-28.7S45.51.98,29.68.98.98,13.84.98,29.68s12.87,28.7,28.7,28.7h0Z"/>
  <path class="cls-2" d="m29.68,53.62c13.18,0,23.94-10.76,23.94-23.94S42.86,5.73,29.68,5.73,5.81,16.5,5.81,29.68s10.69,23.94,23.87,23.94h0Z"/>
  <path class="cls-3" d="m29.68,27.1c1.48,0,2.57,1.17,2.57,2.57s-1.09,2.57-2.57,2.57c-1.4,0-2.57-1.17-2.57-2.57s1.17-2.57,2.57-2.57h0Z"/>
  <path class="cls-2" d="m52.53,67.04c7.96,0,14.51-6.55,14.51-14.58s-6.55-14.51-14.51-14.51-14.58,6.55-14.58,14.51,6.55,14.58,14.58,14.58h0Z"/>
  <path class="cls-1" d="m52.52,67.99c-4.14,0-8.03-1.62-10.97-4.56-5.96-6.04-5.96-15.85,0-21.89,5.37-5.28,13.66-6.05,19.73-1.83.44.31.55.91.24,1.36-.31.44-.91.55-1.36.24-5.31-3.68-12.56-3-17.24,1.61-5.2,5.27-5.2,13.86.01,19.13,2.57,2.57,5.97,3.98,9.59,3.98h.05c3.6-.01,6.97-1.43,9.48-3.98,4.65-4.58,5.32-11.83,1.61-17.25-.3-.44-.19-1.05.25-1.36.44-.3,1.05-.19,1.36.25,4.25,6.2,3.48,14.5-1.84,19.73-2.88,2.92-6.74,4.54-10.86,4.55h-.06Z"/>
  <path class="cls-1" d="m29.83,59.51C13.38,59.51,0,46.16,0,29.76S13.38,0,29.83,0c6.92,0,13.65,2.44,18.95,6.86.41.35.47.96.12,1.37-.34.41-.96.47-1.37.12-4.96-4.13-11.24-6.4-17.7-6.4C14.46,1.95,1.95,14.42,1.95,29.76s12.51,27.8,27.88,27.8c1.33,0,3.07-.04,4.81-.37.53-.1,1.04.25,1.14.78.1.53-.25,1.04-.78,1.14-1.9.36-3.76.41-5.18.41Zm28.31-23.71c-.06,0-.12,0-.18-.02-.53-.1-.88-.61-.78-1.14.3-1.57.45-3.21.45-4.89,0-6.46-2.27-12.75-6.4-17.7-.35-.41-.29-1.03.12-1.37.41-.35,1.03-.29,1.37.12,4.42,5.31,6.86,12.04,6.86,18.95,0,1.79-.16,3.56-.48,5.25-.09.47-.5.79-.96.79Z"/>
  <path class="cls-1" d="m29.83,33.3c-1.99,0-3.55-1.56-3.55-3.55s1.56-3.55,3.55-3.55,3.47,1.59,3.47,3.55-1.56,3.55-3.47,3.55Zm0-5.15c-.91,0-1.6.69-1.6,1.6s.69,1.6,1.6,1.6c.84,0,1.52-.72,1.52-1.6s-.68-1.6-1.52-1.6Z"/>
  <path class="cls-1" d="m29.83,28.16c-.54,0-.98-.44-.98-.98V10.8c0-.54.44-.98.98-.98s.98.44.98.98v16.38c0,.54-.44.98-.98.98Z"/>
  <path class="cls-1" d="m20.32,40.25c-.25,0-.5-.09-.69-.28-.38-.38-.39-1,0-1.38l7.64-7.72c.38-.39,1-.38,1.38,0,.38.38.39,1,0,1.38l-7.64,7.72c-.19.19-.44.29-.69.29Z"/>
  <path class="cls-1" d="m29.83,6.79c-.54,0-.98-.44-.98-.98v-.55c0-.54.44-.98.98-.98s.98.44.98.98v.55c0,.54-.44.98-.98.98Z"/>
  <path class="cls-1" d="m29.83,55.3c-.54,0-.98-.44-.98-.98v-.55c0-.54.44-.98.98-.98s.98.44.98.98v.55c0,.54-.44.98-.98.98Z"/>
  <path class="cls-1" d="m54.32,30.73h-.55c-.54,0-.98-.44-.98-.98s.44-.98.98-.98h.55c.54,0,.98.44.98.98s-.44.98-.98.98Z"/>
  <path class="cls-1" d="m5.81,30.73h-.55c-.54,0-.98-.44-.98-.98s.44-.98.98-.98h.55c.54,0,.98.44.98.98s-.44.98-.98.98Z"/>
  <path class="cls-1" d="m46.76,13.81c-.25,0-.5-.1-.69-.28-.38-.38-.38-1,0-1.38l.39-.39c.38-.38,1-.38,1.38,0,.38.38.38,1,0,1.38l-.39.39c-.19.19-.44.29-.69.29Z"/>
  <path class="cls-1" d="m12.44,48.05c-.28,0-.57-.13-.76-.37-.34-.42-.27-1.03.15-1.37l.39-.31c.42-.34,1.03-.27,1.37.15.34.42.27,1.03-.15,1.37l-.39.31c-.18.14-.39.21-.61.21Z"/>
  <path class="cls-1" d="m12.83,13.81c-.25,0-.5-.1-.69-.29l-.39-.39c-.38-.38-.38-1,0-1.38.38-.38,1-.38,1.38,0l.39.39c.38.38.38,1,0,1.38-.19.19-.44.28-.69.28Z"/>
  <path class="cls-1" d="m51.13,57.87c-.31,0-.61-.15-.79-.4l-3.28-4.52c-.32-.44-.22-1.05.22-1.36.44-.32,1.05-.22,1.36.22l2.47,3.41,5.3-7.61c.31-.44.91-.55,1.36-.24.44.31.55.91.24,1.36l-6.08,8.74c-.18.26-.48.41-.79.42h0Z"/>
</svg>