<?xml version="1.0" encoding="UTF-8"?>
<svg id="Layer_1" data-name="Layer 1" xmlns="http://www.w3.org/2000/svg" viewBox="0 0 120 120">
  <defs>
    <style>
      .cls-1 {
        fill: #f299b2;
      }

      .cls-2 {
        fill: #fff1f7;
      }
    </style>
  </defs>
  <circle class="cls-2" cx="60" cy="60" r="60"/>
  <g>
    <path class="cls-1" d="m50.43,67.45c3.28,0,5.86-4.07,5.86-9.28,0-6.52-4.1-7.23-5.86-7.23s-5.86.7-5.86,7.23c0,5.2,2.57,9.28,5.86,9.28Zm0-14.36c.92,0,3.71,0,3.71,5.08,0,3.8-1.74,7.13-3.71,7.13s-3.71-3.33-3.71-7.13c0-5.08,2.8-5.08,3.71-5.08Z"/>
    <path class="cls-1" d="m64.87,73.63c-.96-1.53-2.37-1.79-3.74-2.05-.54-.1-1.01-.35-1.55-.69-.95-.6-1.53-1.18-1.78-1.75-.17-.39-.56-.64-.98-.64-.15,0-.3.03-.43.09-.54.24-.79.87-.55,1.41.43.97,1.28,1.86,2.59,2.7.64.41,1.39.82,2.45,1.02,1.16.22,1.74.35,2.18,1.06.29.46.56,1.92.66,2.8,0,.02,0,.04,0,.06v4.7c0,.29-.23.52-.52.52h-3.19c-.29,0-.52-.23-.52-.52v-3.19c0-.59-.48-1.07-1.07-1.07s-1.07.48-1.07,1.07v3.19c0,.29-.23.52-.52.52h-12.76c-.29,0-.52-.23-.52-.52v-3.19c0-.59-.48-1.07-1.07-1.07s-1.07.48-1.07,1.07v3.19c0,.29-.23.52-.52.52h-3.19c-.29,0-.52-.23-.52-.52v-4.7s0-.04,0-.06c.1-.88.37-2.34.66-2.81.44-.7,1-.83,2.32-1.08.94-.18,1.7-.6,2.31-.99,1.31-.84,2.16-1.72,2.59-2.69.24-.54,0-1.18-.55-1.41-.14-.06-.28-.09-.43-.09-.42,0-.81.25-.98.64-.26.58-.84,1.15-1.78,1.75-.55.35-1.03.6-1.69.72-1.24.23-2.65.5-3.6,2.02-.52.82-.85,2.5-.99,3.81,0,.04,0,.07,0,.11v6.38c0,.59.48,1.07,1.07,1.07h28.71c.59,0,1.07-.48,1.07-1.07v-6.38s0-.07,0-.11c-.14-1.3-.47-2.98-.98-3.8Z"/>
    <path class="cls-1" d="m82.33,35h-25.52c-1.47,0-2.67,1.2-2.67,2.67v9.57c0,.59.48,1.07,1.07,1.07s1.07-.48,1.07-1.07v-9.57c0-.29.23-.52.52-.52h25.52c.29,0,.52.23.52.52v15.95c0,.29-.23.52-.52.52h-4.79c-.29,0-.56.11-.76.31l-6.85,6.85c-.1.1-.23.15-.37.15-.07,0-.14-.01-.2-.04-.2-.08-.32-.27-.32-.48v-5.72c0-.59-.48-1.07-1.07-1.07h-6.38c-.59,0-1.07.48-1.07,1.07s.48,1.07,1.07,1.07h4.79c.29,0,.52.23.52.52v7.98c0,.44.26.82.66.99.13.05.27.08.41.08.29,0,.56-.11.76-.31l9.1-9.1c.1-.1.23-.15.37-.15h4.13c1.47,0,2.67-1.2,2.67-2.67v-15.95c0-1.47-1.2-2.67-2.67-2.67Z"/>
    <path class="cls-1" d="m61.6,43.52h15.95c.59,0,1.07-.48,1.07-1.07s-.48-1.07-1.07-1.07h-15.95c-.59,0-1.07.48-1.07,1.07s.48,1.07,1.07,1.07Z"/>
    <path class="cls-1" d="m61.6,49.9h15.95c.59,0,1.07-.48,1.07-1.07s-.48-1.07-1.07-1.07h-15.95c-.59,0-1.07.48-1.07,1.07s.48,1.07,1.07,1.07Z"/>
  </g>
</svg>