<?xml version="1.0" encoding="UTF-8"?>
<svg id="Layer_1" data-name="Layer 1" xmlns="http://www.w3.org/2000/svg" viewBox="0 0 120 120">
  <defs>
    <style>
      .cls-1 {
        fill: #f299b2;
      }

      .cls-2 {
        fill: #fff1f7;
      }
    </style>
  </defs>
  <circle class="cls-2" cx="60" cy="60" r="60"/>
  <g>
    <path class="cls-1" d="m36.07,85c-.59,0-1.07-.48-1.07-1.07v-41.48c0-.59.48-1.07,1.07-1.07h19.14c.59,0,1.07.48,1.07,1.07v14.36c0,.29.23.52.52.52h12.76c.29,0,.52-.23.52-.52v-3.19c0-.29-.23-.52-.52-.52h-1.6c-.59,0-1.07-.48-1.07-1.07v-3.19c0-.29-.23-.52-.52-.52h-3.19c-.59,0-1.07-.48-1.07-1.07v-6.38c0-.59.48-1.07,1.07-1.07h3.19c.29,0,.52-.23.52-.52v-3.19c0-.59.48-1.07,1.07-1.07h6.38c.59,0,1.07.48,1.07,1.07v3.19c0,.29.23.52.52.52h3.19c.59,0,1.07.48,1.07,1.07v6.38c0,.59-.48,1.07-1.07,1.07h-3.19c-.29,0-.52.23-.52.52v3.19c0,.59-.48,1.07-1.07,1.07h-1.6c-.29,0-.52.23-.52.52v3.19c0,.29.23.52.52.52h11.17c.59,0,1.07.48,1.07,1.07v25.52c0,.59-.48,1.07-1.07,1.07h-47.86Zm41.48-8.52c.59,0,1.07.48,1.07,1.07v4.79c0,.29.23.52.52.52h3.19c.29,0,.52-.23.52-.52v-22.33c0-.29-.23-.52-.52-.52h-25.52c-.29,0-.52.23-.52.52v22.33c0,.29.23.52.52.52h3.19c.29,0,.52-.23.52-.52v-4.79c0-.59.48-1.07,1.07-1.07s1.07.48,1.07,1.07v4.79c0,.29.23.52.52.52h12.76c.29,0,.52-.23.52-.52v-4.79c0-.59.48-1.07,1.07-1.07Zm-39.88-32.95c-.29,0-.52.23-.52.52v38.29c0,.29.23.52.52.52h15.95c.29,0,.52-.23.52-.52v-38.29c0-.29-.23-.52-.52-.52h-15.95Zm27.12-1.6c-.29,0-.52.23-.52.52v3.19c0,.29.23.52.52.52h3.19c.59,0,1.07.48,1.07,1.07v3.19c0,.29.23.52.52.52h3.19c.29,0,.52-.23.52-.52v-3.19c0-.59.48-1.07,1.07-1.07h3.19c.29,0,.52-.23.52-.52v-3.19c0-.29-.23-.52-.52-.52h-3.19c-.59,0-1.07-.48-1.07-1.07v-3.19c0-.29-.23-.52-.52-.52h-3.19c-.29,0-.52.23-.52.52v3.19c0,.59-.48,1.07-1.07,1.07h-3.19Z"/>
    <rect class="cls-1" x="41.38" y="49.36" width="2.14" height="2.14"/>
    <rect class="cls-1" x="47.76" y="49.36" width="2.14" height="2.14"/>
    <rect class="cls-1" x="41.38" y="55.74" width="2.14" height="2.14"/>
    <rect class="cls-1" x="47.76" y="55.74" width="2.14" height="2.14"/>
    <rect class="cls-1" x="41.38" y="62.12" width="2.14" height="2.14"/>
    <rect class="cls-1" x="47.76" y="62.12" width="2.14" height="2.14"/>
    <rect class="cls-1" x="41.38" y="68.5" width="2.14" height="2.14"/>
    <rect class="cls-1" x="47.76" y="68.5" width="2.14" height="2.14"/>
    <rect class="cls-1" x="60.52" y="63.71" width="2.14" height="2.14"/>
    <rect class="cls-1" x="68.5" y="63.71" width="2.14" height="2.14"/>
    <rect class="cls-1" x="76.48" y="63.71" width="2.14" height="2.14"/>
    <rect class="cls-1" x="60.52" y="70.09" width="2.14" height="2.14"/>
    <rect class="cls-1" x="68.5" y="70.09" width="2.14" height="2.14"/>
    <rect class="cls-1" x="68.5" y="76.48" width="2.14" height="2.14"/>
    <rect class="cls-1" x="76.48" y="70.09" width="2.14" height="2.14"/>
    <rect class="cls-1" x="41.38" y="74.88" width="2.14" height="2.14"/>
    <rect class="cls-1" x="47.76" y="74.88" width="2.14" height="2.14"/>
  </g>
</svg>