<?xml version="1.0" encoding="UTF-8"?>
<svg id="Layer_1" data-name="Layer 1" xmlns="http://www.w3.org/2000/svg" viewBox="0 0 120 120">
  <defs>
    <style>
      .cls-1 {
        fill: #f299b2;
      }

      .cls-2 {
        fill: #fff1f7;
      }
    </style>
  </defs>
  <circle class="cls-2" cx="60" cy="60" r="60"/>
  <g>
    <path class="cls-1" d="m37.67,85c-1.47,0-2.67-1.2-2.67-2.67v-38.29c0-1.47,1.2-2.67,2.67-2.67h3.19c.29,0,.52-.23.52-.52v-1.6c0-.59.48-1.07,1.07-1.07h5.66c.19,0,.36-.1.45-.26,1.05-1.81,2.98-2.93,5.05-2.93s4.01,1.12,5.05,2.93c.09.16.27.26.45.26h5.66c.59,0,1.07.48,1.07,1.07v1.6c0,.29.23.52.52.52h3.19c1.47,0,2.67,1.2,2.67,2.67v38.29c0,1.47-1.2,2.67-2.67,2.67h-31.9Zm0-41.48c-.29,0-.52.23-.52.52v38.29c0,.29.23.52.52.52h31.9c.29,0,.52-.23.52-.52v-38.29c0-.29-.23-.52-.52-.52h-3.19c-.29,0-.52.23-.52.52v1.6c0,.59-.48,1.07-1.07,1.07h-22.33c-.59,0-1.07-.48-1.07-1.07v-1.6c0-.29-.23-.52-.52-.52h-3.19Zm6.38-3.19c-.29,0-.52.23-.52.52v3.19c0,.29.23.52.52.52h19.14c.29,0,.52-.23.52-.52v-3.19c0-.29-.23-.52-.52-.52h-5.08c-.45,0-.86-.29-1.01-.71-.53-1.48-1.93-2.48-3.48-2.48s-2.96,1-3.48,2.48c-.15.43-.56.71-1.01.71h-5.08Z"/>
    <path class="cls-1" d="m56.81,56.29c-.59,0-1.07-.48-1.07-1.07s.48-1.07,1.07-1.07h7.98c.59,0,1.07.48,1.07,1.07s-.48,1.07-1.07,1.07h-7.98Z"/>
    <path class="cls-1" d="m56.81,65.86c-.59,0-1.07-.48-1.07-1.07s.48-1.07,1.07-1.07h7.98c.59,0,1.07.48,1.07,1.07s-.48,1.07-1.07,1.07h-7.98Z"/>
    <path class="cls-1" d="m56.81,75.43c-.59,0-1.07-.48-1.07-1.07s.48-1.07,1.07-1.07h7.98c.59,0,1.07.48,1.07,1.07s-.48,1.07-1.07,1.07h-7.98Z"/>
    <path class="cls-1" d="m80.74,85c-.59,0-1.07-.48-1.07-1.07v-3.19c0-.29-.23-.52-.52-.52-.59,0-1.07-.48-1.07-1.07v-3.19c0-.29-.23-.52-.52-.52-.59,0-1.07-.48-1.07-1.07v-27.12c0-.59.48-1.07,1.07-1.07.29,0,.52-.23.52-.52v-3.19c0-.59.48-1.07,1.07-1.07h3.19c.59,0,1.07.48,1.07,1.07v3.19c0,.29.23.52.52.52.59,0,1.07.48,1.07,1.07v27.12c0,.59-.48,1.07-1.07,1.07-.29,0-.52.23-.52.52v3.19c0,.59-.48,1.07-1.07,1.07-.29,0-.52.23-.52.52v3.19c0,.59-.48,1.07-1.07,1.07Zm-1.6-36.69c-.29,0-.52.23-.52.52v23.93c0,.29.23.52.52.52h3.19c.29,0,.52-.23.52-.52v-23.93c0-.29-.23-.52-.52-.52h-3.19Z"/>
    <path class="cls-1" d="m45.63,59.48c-.11,0-.22-.03-.36-.07,0,0-.01,0-.02-.02-.03-.02-.05-.03-.08-.05-.03-.02-.07-.03-.1-.05-.01,0-.03-.01-.04-.02-.02-.02-.05-.05-.08-.08-.04-.03-.08-.06-.1-.07l-3.15-3.15c-.42-.42-.42-1.1,0-1.52.2-.2.47-.31.76-.31s.56.11.76.31l1.89,1.89c.1.1.23.15.37.15.01,0,.02,0,.04,0,.15-.01.29-.09.38-.21l3.68-4.91c.21-.27.52-.43.86-.43.23,0,.45.07.64.21.23.17.38.42.42.71.04.28-.03.57-.2.79l-4.75,6.33s-.06.05-.09.09c-.03.04-.05.07-.07.1-.02.01-.05.03-.07.04-.04.02-.07.04-.11.06-.04.02-.07.05-.1.07-.01,0-.02.02-.03.02-.13.06-.28.09-.41.1,0,0-.02,0-.03,0Z"/>
    <path class="cls-1" d="m45.63,69.05c-.11,0-.22-.03-.36-.07,0,0-.01,0-.02-.02-.03-.02-.05-.03-.08-.05-.03-.02-.07-.03-.1-.05-.01,0-.03-.01-.04-.02-.02-.02-.05-.05-.08-.08-.04-.03-.08-.06-.1-.07l-3.15-3.15c-.42-.42-.42-1.1,0-1.52.2-.2.47-.31.76-.31s.56.11.76.31l1.89,1.89c.1.1.23.15.37.15.01,0,.02,0,.04,0,.15-.01.29-.09.38-.21l3.68-4.91c.2-.27.52-.43.86-.43.23,0,.45.07.64.21.23.17.38.42.42.71.04.28-.03.57-.2.79l-4.75,6.33s-.06.05-.09.09c-.03.04-.05.07-.07.1-.02.01-.05.03-.07.04-.04.02-.07.04-.11.06-.04.02-.07.05-.1.07-.01,0-.02.02-.03.02-.13.06-.28.09-.41.1,0,0-.02,0-.03,0Z"/>
    <path class="cls-1" d="m45.63,78.62c-.11,0-.22-.03-.36-.07,0,0-.01,0-.02-.02-.03-.02-.05-.03-.08-.05-.03-.02-.07-.03-.1-.05-.01,0-.03-.01-.04-.02-.02-.02-.05-.05-.08-.08-.04-.03-.08-.06-.1-.07l-3.15-3.15c-.42-.42-.42-1.1,0-1.52.2-.2.47-.31.76-.31s.56.11.76.31l1.89,1.89c.1.1.23.15.37.15.01,0,.02,0,.04,0,.15-.01.29-.09.38-.21l3.68-4.91c.21-.27.52-.43.86-.43.23,0,.45.07.64.21.23.17.38.42.42.71.04.28-.03.57-.2.79l-4.75,6.33s-.06.05-.09.09c-.03.04-.05.07-.07.1-.02.01-.05.03-.07.04-.04.02-.07.04-.11.06-.04.02-.07.05-.1.07-.01,0-.02.02-.03.02-.13.06-.28.09-.41.1,0,0-.02,0-.03,0Z"/>
    <path class="cls-1" d="m53.62,41.93c-.59,0-1.07-.48-1.07-1.07s.48-1.07,1.07-1.07,1.07.48,1.07,1.07-.48,1.07-1.07,1.07Z"/>
  </g>
</svg>