<?xml version="1.0" encoding="UTF-8"?>
<svg id="Layer_1" data-name="Layer 1" xmlns="http://www.w3.org/2000/svg" viewBox="0 0 120 120">
  <defs>
    <style>
      .cls-1 {
        fill: #f299b2;
      }

      .cls-2 {
        fill: #fff1f7;
      }
    </style>
  </defs>
  <circle class="cls-2" cx="60" cy="60" r="60"/>
  <g>
    <path class="cls-1" d="m48.83,65.06c-.59,0-1.07-.48-1.07-1.07v-3.19c0-.29-.23-.52-.52-.52h-3.19c-.59,0-1.07-.48-1.07-1.07v-6.38c0-.59.48-1.07,1.07-1.07h3.19c.29,0,.52-.23.52-.52v-3.19c0-.59.48-1.07,1.07-1.07h6.38c.59,0,1.07.48,1.07,1.07v3.19c0,.29.23.52.52.52h3.19c.59,0,1.07.48,1.07,1.07v6.38c0,.59-.48,1.07-1.07,1.07h-3.19c-.29,0-.52.23-.52.52v3.19c0,.59-.48,1.07-1.07,1.07h-6.38Zm-3.19-11.17c-.29,0-.52.23-.52.52v3.19c0,.29.23.52.52.52h3.19c.59,0,1.07.48,1.07,1.07v3.19c0,.29.23.52.52.52h3.19c.29,0,.52-.23.52-.52v-3.19c0-.59.48-1.07,1.07-1.07h3.19c.29,0,.52-.23.52-.52v-3.19c0-.29-.23-.52-.52-.52h-3.19c-.59,0-1.07-.48-1.07-1.07v-3.19c0-.29-.23-.52-.52-.52h-3.19c-.29,0-.52.23-.52.52v3.19c0,.59-.48,1.07-1.07,1.07h-3.19Z"/>
    <path class="cls-1" d="m75.95,81.01c-3.23,0-5.86-2.63-5.86-5.86,0-.45.07-.91.21-1.46.04-.16,0-.32-.09-.45-.1-.13-.25-.2-.41-.2h-18c-.16,0-.31.08-.41.2-.1.13-.13.3-.09.45.14.55.21,1.01.21,1.46,0,3.23-2.63,5.86-5.86,5.86s-5.86-2.63-5.86-5.86c0-.45.07-.91.21-1.46.04-.16,0-.32-.09-.45-.1-.13-.25-.2-.41-.2h-3.42c-.59,0-1.07-.48-1.07-1.07v-31.9c0-.59.48-1.07,1.07-1.07h31.9c.59,0,1.07.48,1.07,1.07v11.17c0,.29.23.52.52.52h3.19c.29,0,.52-.23.52-.52v-1.6c0-.59.48-1.07,1.07-1.07s1.07.48,1.07,1.07v1.6c0,.29.23.52.52.52h3.19c.37,0,.73.2.92.52l4.79,7.98c.1.17.15.36.15.55v11.17c0,.59-.48,1.07-1.07,1.07h-1.82c-.16,0-.31.08-.41.2-.1.13-.13.3-.09.45.14.55.21,1.01.21,1.46,0,3.23-2.63,5.86-5.86,5.86Zm-2.76-8.32c-.61.69-.95,1.56-.95,2.46,0,2.05,1.67,3.71,3.71,3.71s3.71-1.67,3.71-3.71c0-.9-.34-1.77-.95-2.46,0,0-.01-.01-.02-.02,0,0-.02-.02-.02-.02-.7-.75-1.68-1.17-2.72-1.17s-2.03.43-2.72,1.18c-.01.01-.03.03-.04.04h0Zm-30.31,0c-.61.69-.95,1.56-.95,2.46,0,2.05,1.67,3.71,3.71,3.71s3.71-1.67,3.71-3.71c0-.9-.34-1.77-.95-2.46,0,0-.01-.01-.02-.02,0,0-.02-.02-.02-.02-.7-.75-1.68-1.17-2.72-1.17s-2.03.43-2.72,1.18c-.01.01-.03.03-.04.04h0Zm33.07-3.39c1.03,0,2.03.28,2.97.84,0,0,.04.02.05.03.22.13.45.3.7.5.04.03.08.06.12.08l.03.02c.1.08.21.13.34.13h2.19c.29,0,.52-.23.52-.52v-4.79c0-.29-.23-.52-.52-.52h-7.98c-.59,0-1.07-.48-1.07-1.07v-9.57c0-.29-.23-.52-.52-.52h-3.19c-.29,0-.52.23-.52.52v15.95c0,.29.23.52.52.52h2.19c.13,0,.25-.05.35-.13h.02s.08-.07.12-.1c.25-.2.48-.37.71-.51,0,0,.02-.01.03-.02.95-.56,1.95-.84,2.98-.84Zm-30.31,0c1.03,0,2.03.28,2.97.84,0,0,.04.02.05.03.22.13.45.3.7.5.04.03.08.06.12.08l.03.02c.1.08.21.13.34.13h16.54c.29,0,.52-.23.52-.52v-28.71c0-.29-.23-.52-.52-.52h-28.71c-.29,0-.52.23-.52.52v28.71c0,.29.23.52.52.52h3.78c.13,0,.25-.05.35-.13h.02s.08-.07.12-.1c.25-.2.48-.37.71-.51,0,0,.02-.01.03-.02.95-.56,1.95-.84,2.98-.84Zm30.31-15.4c-.29,0-.52.23-.52.52v7.98c0,.29.23.52.52.52h6.38c.29,0,.52-.23.52-.52v-1.15c0-.09-.03-.19-.07-.27l-4.09-6.82c-.09-.16-.27-.25-.45-.25h-2.29Z"/>
    <path class="cls-1" d="m45.64,76.24h0c-.59,0-1.07-.48-1.07-1.07h0c0-.59.48-1.07,1.07-1.07h0c.59,0,1.07.48,1.07,1.07h0c0,.59-.48,1.07-1.07,1.07Z"/>
    <path class="cls-1" d="m75.95,76.24h0c-.59,0-1.07-.48-1.07-1.07h0c0-.59.48-1.07,1.07-1.07h0c.59,0,1.07.48,1.07,1.07h0c0,.59-.48,1.07-1.07,1.07Z"/>
  </g>
</svg>