<?xml version="1.0" encoding="UTF-8"?>
<svg id="_迹_1" data-name="卵迹_1" xmlns="http://www.w3.org/2000/svg" viewBox="0 0 68 68">
  <defs>
    <style>
      .cls-1 {
        fill: #f299b2;
      }

      .cls-2 {
        fill: #f6f7f7;
      }

      .cls-2, .cls-3, .cls-4 {
        fill-rule: evenodd;
      }

      .cls-3 {
        fill: #fff;
      }

      .cls-4 {
        fill: #ffe9ed;
      }
    </style>
  </defs>
  <path class="cls-4" d="m.98,49.53v5.15c0,1.8,1.41,3.2,3.12,3.2h59.8c1.72,0,3.12-1.41,3.12-3.2v-5.15H.98Z"/>
  <polygon class="cls-4" points="40.56 67.1 38.61 57.89 29.39 57.89 27.52 67.1 40.56 67.1"/>
  <path class="cls-3" d="m22.45,43.99c11.87,0,21.55-9.68,21.55-21.55S34.31.98,22.45.98.98,10.66.98,22.44s9.68,21.55,21.47,21.55h0Z"/>
  <path class="cls-4" d="m16.82,24.32c1.48-1.48,3.51-2.42,5.62-2.42s4.22.94,5.7,2.42c1.33,1.41,2.26,3.2,2.26,5.23,0,4.37-3.59,5.07-7.96,5.07s-7.88-.7-7.88-5.07c0-2.03.94-3.83,2.26-5.23h0Z"/>
  <path class="cls-2" d="m22.45,9.95c2.58,0,4.61,2.11,4.61,4.61s-2.03,7.03-4.61,7.03-4.61-4.45-4.61-7.03,2.11-4.61,4.61-4.61h0Z"/>
  <polygon class="cls-4" points="44.62 43.99 37.51 33.22 49.93 36.73 44.62 43.99"/>
  <path class="cls-1" d="m63.9,58.86H4.1c-2.26,0-4.1-1.87-4.1-4.18v-15.77c0-.54.44-.98.98-.98s.98.44.98.98v15.77c0,1.25.94,2.22,2.15,2.22h59.8c1.2,0,2.15-.98,2.15-2.22v-15.92c0-.54.44-.98.98-.98s.98.44.98.98v15.92c0,2.3-1.84,4.18-4.1,4.18Zm3.12-24.04c-.54,0-.98-.44-.98-.98V10.73c0-1.2-.98-2.22-2.15-2.22h-18.81c-.54,0-.98-.44-.98-.98s.44-.98.98-.98h18.81c2.22,0,4.1,1.91,4.1,4.18v23.11c0,.54-.44.98-.98.98Z"/>
  <g>
    <path class="cls-1" d="m22.45,22.8c-3.33,0-5.66-5.29-5.66-8.16,0-3.12,2.54-5.66,5.66-5.66s5.66,2.49,5.66,5.66c0,2.8-2.2,8.16-5.66,8.16Zm0-11.87c-2.04,0-3.71,1.66-3.71,3.71,0,2.45,1.99,6.21,3.71,6.21,1.88,0,3.71-3.93,3.71-6.21,0-2.08-1.63-3.71-3.71-3.71Z"/>
    <path class="cls-1" d="m22.45,35.99c-2.93,0-9.02,0-9.02-6.13,0-2.11.9-4.18,2.61-5.98.37-.39.99-.41,1.38-.03.39.37.41.99.04,1.38-1.38,1.45-2.07,3.01-2.07,4.64,0,3.08,1.85,4.17,7.06,4.17s7.07-1.09,7.07-4.17c0-1.6-.68-3.17-2.02-4.66-.36-.4-.33-1.02.08-1.38.4-.36,1.02-.32,1.38.08,1.67,1.86,2.51,3.87,2.51,5.96,0,6.13-6.09,6.13-9.02,6.13Z"/>
    <path class="cls-1" d="m22.45,28.5c-.25,0-.5-.1-.69-.29l-1.25-1.25c-.38-.38-.38-1,0-1.38.38-.38,1-.38,1.38,0l1.25,1.25c.38.38.38,1,0,1.38-.19.19-.44.29-.69.29Z"/>
    <path class="cls-1" d="m22.45,28.5c-.26,0-.52-.1-.71-.31-.37-.39-.35-1.01.04-1.38l1.33-1.25c.4-.37,1.01-.35,1.38.04.37.39.35,1.01-.04,1.38l-1.33,1.25c-.19.18-.43.27-.67.27Z"/>
    <path class="cls-1" d="m22.45,35.99c-.54,0-.98-.44-.98-.98v-7.49c0-.54.44-.98.98-.98s.98.44.98.98v7.49c0,.54-.44.98-.98.98Z"/>
    <path class="cls-1" d="m45.4,68h-22.8c-.54,0-.98-.44-.98-.98s.44-.98.98-.98h22.8c.54,0,.98.44.98.98s-.44.98-.98.98Z"/>
    <path class="cls-1" d="m27.52,68c-.07,0-.14,0-.22-.02-.53-.12-.86-.64-.74-1.16l1.01-4.53c.12-.53.64-.86,1.17-.74.53.12.86.64.74,1.16l-1.01,4.53c-.1.45-.5.76-.95.76Z"/>
    <path class="cls-1" d="m40.56,68c-.44,0-.84-.3-.95-.74l-1.95-7.96c-.13-.52.19-1.05.72-1.18.52-.14,1.05.19,1.18.72l1.95,7.96c.13.52-.19,1.05-.72,1.18-.08.02-.16.03-.23.03Z"/>
    <path class="cls-1" d="m67.02,50.51H.98c-.54,0-.98-.44-.98-.98s.44-.98.98-.98h66.05c.54,0,.98.44.98.98s-.44.98-.98.98Z"/>
    <path class="cls-1" d="m44.62,44.97h-.02c-.32,0-.61-.17-.79-.44l-7.1-10.77c-.22-.34-.21-.79.03-1.11.24-.33.66-.47,1.05-.36l12.41,3.51c.31.09.55.32.66.62.1.3.05.63-.13.89l-5.31,7.26c-.18.25-.48.4-.79.4Zm-4.85-10.09l4.89,7.41,3.65-4.99-8.54-2.42Z"/>
    <path class="cls-1" d="m51.95,44.81c-.2,0-.41-.06-.58-.2l-4.68-3.51c-.43-.32-.52-.93-.2-1.37.32-.43.93-.52,1.37-.19l4.68,3.51c.43.32.52.93.2,1.37-.19.26-.49.39-.78.39Z"/>
    <path class="cls-1" d="m22.45,44.97C10.07,44.97,0,34.86,0,22.44S10.07,0,22.45,0s22.52,10.07,22.52,22.44c0,2.72-.47,5.33-1.39,7.76-.19.5-.76.76-1.26.56-.5-.19-.76-.75-.57-1.26.84-2.21,1.26-4.59,1.26-7.07,0-11.3-9.23-20.49-20.57-20.49S1.95,11.15,1.95,22.44s9.19,20.57,20.49,20.57c4.76,0,9.25-1.6,12.97-4.62.42-.33,1.03-.27,1.37.14.34.42.28,1.03-.14,1.37-4.07,3.31-8.98,5.06-14.2,5.06Z"/>
    <path class="cls-1" d="m34.47,54.65h-.94c-.54,0-.98-.44-.98-.98s.44-.98.98-.98h.94c.54,0,.98.44.98.98s-.44.98-.98.98Z"/>
  </g>
</svg>