<?xml version="1.0" encoding="UTF-8"?>
<svg id="_迹_1" data-name=" 迹 1" xmlns="http://www.w3.org/2000/svg" viewBox="0 0 68 63.58">
  <defs>
    <style>
      .cls-1 {
        fill: #f299b2;
      }

      .cls-2 {
        fill: #fff;
      }

      .cls-2, .cls-3 {
        fill-rule: evenodd;
      }

      .cls-4, .cls-3 {
        fill: #ffe9ed;
      }
    </style>
  </defs>
  <path class="cls-4" d="m7.7,45.21h52.58l6.47,13.42c.39.86.39,1.87-.16,2.65-.55.86-1.4,1.33-2.34,1.33H3.72c-.94,0-1.79-.47-2.34-1.33-.47-.78-.55-1.79-.16-2.65l6.47-13.42h0Z"/>
  <path class="cls-2" d="m27.2.98h20.98c1.48,0,2.65,1.25,2.65,2.65v41.58H17.14V11.04c0-1.4.55-2.65,1.56-3.67l4.84-4.84c1.01-1.01,2.26-1.56,3.67-1.56h0Z"/>
  <path class="cls-3" d="m17.14,11.04c0-1.4.55-2.65,1.56-3.67l4.84-4.84c1.01-1.01,2.26-1.56,3.67-1.56v7.88c0,1.25-.94,2.18-2.18,2.18h-7.89Z"/>
  <path class="cls-1" d="m64.25,63.58H3.72c-1.29,0-2.44-.65-3.16-1.78-.66-1.09-.73-2.45-.22-3.58l3.75-7.74c.23-.49.82-.69,1.3-.45.48.23.69.82.45,1.3l-3.74,7.72c-.24.52-.2,1.21.11,1.73.35.54.89.85,1.5.85h60.53c.62,0,1.16-.31,1.52-.88.34-.48.36-1.13.09-1.72l-6.2-12.85H7.7c-.54,0-.98-.44-.98-.98s.44-.98.98-.98h52.58c.37,0,.71.21.88.55l6.47,13.42c.57,1.26.48,2.61-.24,3.64-.69,1.1-1.85,1.74-3.14,1.74h0Z"/>
  <path class="cls-1" d="m55.2,51.96H12.77c-.54,0-.98-.44-.98-.98s.44-.98.98-.98h42.44c.54,0,.98.44.98.98s-.44.98-.98.98h0Z"/>
  <path class="cls-1" d="m38.98,57.81h-9.98c-.54,0-.98-.44-.98-.98s.44-.98.98-.98h9.98c.54,0,.98.44.98.98s-.44.98-.98.98Z"/>
  <path class="cls-1" d="m50.99,41.58c-.54,0-.98-.44-.98-.98V3.63c0-.91-.77-1.68-1.68-1.68h-21.14c-1.18,0-2.22.42-3.16,1.3l-4.81,4.81c-.85.91-1.27,1.95-1.27,3.13v29.41c0,.54-.44.98-.98.98s-.98-.44-.98-.98V11.2c0-1.67.61-3.18,1.82-4.49l4.86-4.86c1.33-1.23,2.84-1.85,4.51-1.85h21.14c1.97,0,3.63,1.66,3.63,3.63v36.98c0,.54-.44.98-.98.98h.02Z"/>
  <path class="cls-1" d="m24.94,12.17h-2.73c-.54,0-.98-.44-.98-.98s.44-.98.98-.98h2.73c.71,0,1.29-.58,1.29-1.29V.98C26.23.44,26.67,0,27.21,0s.98.44.98.98v7.96c0,1.78-1.45,3.24-3.24,3.24h0Z"/>
  <path class="cls-1" d="m46.31,6.87h-7.1c-.54,0-.98-.44-.98-.98s.44-.98.98-.98h7.1c.54,0,.98.44.98.98s-.44.98-.98.98Z"/>
  <path class="cls-1" d="m46.31,11.7h-14.35c-.54,0-.98-.44-.98-.98s.44-.98.98-.98h14.35c.54,0,.98.44.98.98s-.44.98-.98.98Z"/>
  <path class="cls-1" d="m22.83,25.28h-1.17c-.54,0-.98-.44-.98-.98s.44-.98.98-.98h1.17c.54,0,.98.44.98.98s-.44.98-.98.98Z"/>
  <path class="cls-1" d="m46.31,25.28h-19.11c-.54,0-.98-.44-.98-.98s.44-.98.98-.98h19.11c.54,0,.98.44.98.98s-.44.98-.98.98Z"/>
  <path class="cls-1" d="m22.83,18.65h-1.17c-.54,0-.98-.44-.98-.98s.44-.98.98-.98h1.17c.54,0,.98.44.98.98s-.44.98-.98.98Z"/>
  <path class="cls-1" d="m46.31,18.65h-19.11c-.54,0-.98-.44-.98-.98s.44-.98.98-.98h19.11c.54,0,.98.44.98.98s-.44.98-.98.98Z"/>
  <path class="cls-1" d="m22.83,38.46h-1.17c-.54,0-.98-.44-.98-.98s.44-.98.98-.98h1.17c.54,0,.98.44.98.98s-.44.98-.98.98Z"/>
  <path class="cls-1" d="m46.31,38.46h-19.11c-.54,0-.98-.44-.98-.98s.44-.98.98-.98h19.11c.54,0,.98.44.98.98s-.44.98-.98.98Z"/>
  <path class="cls-1" d="m22.83,31.91h-1.17c-.54,0-.98-.44-.98-.98s.44-.98.98-.98h1.17c.54,0,.98.44.98.98s-.44.98-.98.98Z"/>
  <path class="cls-1" d="m46.31,31.91h-19.11c-.54,0-.98-.44-.98-.98s.44-.98.98-.98h19.11c.54,0,.98.44.98.98s-.44.98-.98.98Z"/>
  <path class="cls-1" d="m7.7,46.18c-.54,0-.98-.44-.98-.98V14.71c0-2.73,2.22-4.95,4.95-4.95h1.01c.54,0,.98.44.98.98s-.44.98-.98.98h-1.01c-1.66,0-3,1.35-3,3v30.5c0,.54-.44.98-.98.98v-.02Zm52.58-5.69c-.54,0-.98-.44-.98-.98V14.71c0-1.66-1.35-3-3-3h-1.01c-.54,0-.98-.44-.98-.98s.44-.98.98-.98h1.01c2.73,0,4.95,2.22,4.95,4.95v24.81c0,.54-.44.98-.98.98h0Z"/>
</svg>